<svg width="23" height="22" viewBox="0 0 23 22" fill="none" xmlns="http://www.w3.org/2000/svg">
<path d="M16.4122 10.9756H12.9293C12.9018 10.9756 12.8481 10.8936 12.8526 10.8526C12.8652 10.0518 12.7925 8.95176 13.5051 8.39282C14.2844 7.78126 15.5798 7.93041 16.5115 8.03177C16.4989 7.98495 16.5626 7.92848 16.5626 7.9111V4.89435C16.3386 4.86876 16.1096 4.82001 15.8855 4.79829C11.9316 4.41553 9.21688 5.20616 8.99338 9.50202C8.97283 9.89782 9.06253 10.5021 8.99538 10.8555C8.98786 10.8955 8.95529 10.9761 8.92021 10.9761H6.58991V14.1136H8.99538V21.3055C4.77679 20.3744 1.47479 17.0671 0.692511 12.9638C-1.11259 3.50133 10.1811 -3.09161 18.1321 2.63395C25.5395 7.96854 23.0789 19.2387 14.118 21.291C13.8765 21.3465 13.1824 21.5121 12.9789 21.4991C12.9363 21.4962 12.9018 21.4884 12.8767 21.4517L12.8516 14.2791C12.8406 14.2299 12.8877 14.1126 12.9293 14.1126H15.9863L16.4122 10.9752V10.9756Z" fill="#3862AC"/>
</svg>
