<svg width="21" height="22" viewBox="0 0 21 22" fill="none" xmlns="http://www.w3.org/2000/svg">
<g clip-path="url(#clip0_5398_1756)">
<path d="M4.69293 8.99934L1.16394 6.31608C3.27128 2.18911 7.73484 -0.0749997 12.4302 0.626264C14.2969 0.905098 16.3351 1.80787 17.7138 3.08054C17.7598 3.12293 17.8835 3.21458 17.8521 3.27459L14.8324 6.22324L14.763 6.21249C12.7263 4.30663 9.49583 4.2108 7.20815 5.75483C6.11397 6.49341 5.11178 7.75682 4.69263 8.99904L4.69293 8.99934Z" fill="#E84437"/>
<path d="M14.3368 16.3039L17.7744 18.9278C16.5279 20.0138 15.4785 20.6509 13.826 21.0957C8.73916 22.4651 3.5037 20.2816 1.16394 15.6779L4.69293 12.9946C5.97659 16.8679 10.8526 18.6038 14.3368 16.3042V16.3039Z" fill="#38A954"/>
<path d="M14.3368 16.3039C15.4346 15.5794 16.2641 14.4413 16.4664 13.1436H10.7167V9.08887H20.8169C21.4155 12.5677 20.5748 16.3675 17.9276 18.854C17.8707 18.9075 17.7878 18.9164 17.7747 18.9278L14.3371 16.3039H14.3368Z" fill="#527CBE"/>
<path d="M4.69296 8.99941C4.28142 10.2192 4.28964 11.7776 4.69296 12.9947L1.16397 15.678C-0.384097 12.632 -0.391713 9.36244 1.16397 6.31616L4.69296 8.99941Z" fill="#F9BC10"/>
</g>
<defs>
<clipPath id="clip0_5398_1756">
<rect width="21" height="21" fill="white" transform="translate(0 0.5)"/>
</clipPath>
</defs>
</svg>
